<svg width="25" height="25" viewBox="0 0 25 25" fill="none" xmlns="http://www.w3.org/2000/svg">
<path d="M18.2306 4.47167L15.641 6.45738L16.5724 9.58947L13.8805 7.73683L11.1885 9.58947L12.1199 6.45738L9.53032 4.47167L12.7955 4.37955L13.8805 1.30887L14.9654 4.37955L18.2306 4.47167ZM21.813 11.5445L20.1344 12.8239L20.7383 14.8506L18.9983 13.653L17.2582 14.8506L17.8621 12.8239L16.1835 11.5445L18.292 11.4933L18.9983 9.49735L19.7045 11.4933L21.813 11.5445ZM19.4793 16.6111C20.3289 16.5292 21.2399 17.737 20.6974 18.5047C20.3698 18.9653 20.0218 19.3952 19.5919 19.8046C15.5898 23.8272 9.11066 23.8272 5.11878 19.8046C1.11666 15.8127 1.11666 9.32334 5.11878 5.33146C5.5282 4.92204 5.9581 4.55355 6.4187 4.22601C7.18637 3.68353 8.39417 4.5945 8.31229 5.44405C8.03592 8.37143 9.01854 11.4114 11.2704 13.653C13.512 15.9048 16.5417 16.8875 19.4793 16.6111Z" fill="white"/>
</svg>
