<svg width="26" height="26" viewBox="0 0 26 26" fill="none" xmlns="http://www.w3.org/2000/svg">
<path d="M5.88532 18.4628H19.3215C21.6047 18.4628 23.4557 16.6118 23.4557 14.3286C23.4557 12.3895 22.1207 10.7622 20.3196 10.3157C20.343 10.1062 20.355 9.89328 20.355 9.67757C20.355 6.53809 17.81 3.99304 14.6705 3.99304C12.0665 3.99304 9.8715 5.74391 9.19844 8.13261C9.12807 8.12905 9.05723 8.12725 8.98598 8.12725C6.70272 8.12725 4.85177 9.97819 4.85177 12.2615C4.85177 12.3201 4.85299 12.3785 4.85541 12.4366C3.64922 12.8612 2.78467 14.0107 2.78467 15.3621C2.78467 17.0746 4.17288 18.4628 5.88532 18.4628Z" fill="white" fill-opacity="0.6"/>
<path d="M8.38092 19.4963C8.11831 19.4963 7.87824 19.6447 7.76079 19.8796L6.38702 22.6271C6.15652 23.0881 6.49174 23.6305 7.00715 23.6305C7.26976 23.6305 7.50984 23.4821 7.62728 23.2473L9.00106 20.4997C9.23155 20.0387 8.89633 19.4963 8.38092 19.4963Z" fill="white" fill-opacity="0.6"/>
<path d="M11.4816 19.4963C11.997 19.4963 12.3322 20.0387 12.1017 20.4997L10.7279 23.2473C10.6105 23.4821 10.3704 23.6305 10.1078 23.6305C9.5924 23.6305 9.25718 23.0881 9.48767 22.6271L10.8614 19.8796C10.9789 19.6447 11.219 19.4963 11.4816 19.4963Z" fill="white" fill-opacity="0.6"/>
<path d="M17.6829 19.4963C18.1983 19.4963 18.5335 20.0387 18.303 20.4997L16.9292 23.2473C16.8118 23.4821 16.5717 23.6305 16.3091 23.6305C15.7937 23.6305 15.4585 23.0881 15.689 22.6271L17.0628 19.8796C17.1802 19.6447 17.4203 19.4963 17.6829 19.4963Z" fill="white" fill-opacity="0.6"/>
<path d="M14.5822 19.4963C15.0976 19.4963 15.4329 20.0387 15.2024 20.4997L13.8286 23.2473C13.7111 23.4821 13.4711 23.6305 13.2085 23.6305C12.6931 23.6305 12.3578 23.0881 12.5883 22.6271L13.9621 19.8796C14.0795 19.6447 14.3196 19.4963 14.5822 19.4963Z" fill="white" fill-opacity="0.6"/>
</svg>
