<svg width="27" height="27" viewBox="0 0 27 27" fill="none" xmlns="http://www.w3.org/2000/svg">
<path d="M6.97639 5.44979L6.54431 5.01595C6.11224 4.5821 5.41428 4.59322 4.99328 5.01595L4.9822 5.02707C4.55013 5.46092 4.55013 6.16175 4.9822 6.58448L5.41428 7.01832C5.84635 7.45217 6.53323 7.45217 6.96531 7.01832L6.97639 7.0072C7.40846 6.58448 7.40846 5.87252 6.97639 5.44979ZM3.60843 12.5249H2.47839C1.86906 12.5249 1.38159 13.0143 1.38159 13.6262V13.6373C1.38159 14.2491 1.86906 14.7386 2.47839 14.7386H3.59735C4.21776 14.7497 4.70523 14.2603 4.70523 13.6484V13.6373C4.70523 13.0143 4.21776 12.5249 3.60843 12.5249ZM13.5794 1.45616H13.5683C12.9479 1.45616 12.4604 1.94563 12.4604 2.55747V3.6254C12.4604 4.23724 12.9479 4.72671 13.5572 4.72671H13.5683C14.1887 4.73784 14.6762 4.24837 14.6762 3.63653V2.55747C14.6762 1.94563 14.1887 1.45616 13.5794 1.45616ZM22.1543 5.02707C21.7223 4.59322 21.0243 4.59322 20.5922 5.01595L20.1602 5.44979C19.7281 5.88364 19.7281 6.58448 20.1602 7.0072L20.1712 7.01832C20.6033 7.45217 21.3013 7.45217 21.7223 7.01832L22.1543 6.58448C22.5864 6.15063 22.5864 5.46092 22.1543 5.02707ZM20.1491 21.8248L20.5812 22.2587C21.0132 22.6925 21.7112 22.6925 22.1433 22.2587C22.5753 21.8248 22.5753 21.124 22.1433 20.6901L21.7112 20.2563C21.2791 19.8224 20.5812 19.8336 20.1602 20.2563C19.717 20.7013 19.717 21.391 20.1491 21.8248ZM22.4313 13.6262V13.6373C22.4313 14.2491 22.9188 14.7386 23.5281 14.7386H24.6471C25.2564 14.7386 25.7439 14.2491 25.7439 13.6373V13.6262C25.7439 13.0143 25.2564 12.5249 24.6471 12.5249H23.5281C22.9188 12.5249 22.4313 13.0143 22.4313 13.6262ZM13.5683 6.9627C9.90119 6.9627 6.92099 9.95515 6.92099 13.6373C6.92099 17.3195 9.90119 20.3119 13.5683 20.3119C17.2354 20.3119 20.2156 17.3195 20.2156 13.6373C20.2156 9.95515 17.2354 6.9627 13.5683 6.9627ZM13.5572 25.8184H13.5683C14.1776 25.8184 14.6651 25.329 14.6651 24.7171V23.6492C14.6651 23.0374 14.1776 22.5479 13.5683 22.5479H13.5572C12.9479 22.5479 12.4604 23.0374 12.4604 23.6492V24.7171C12.4604 25.329 12.9479 25.8184 13.5572 25.8184ZM4.9822 22.2475C5.41428 22.6814 6.11224 22.6814 6.54431 22.2475L6.97639 21.8137C7.40846 21.3798 7.39738 20.679 6.97639 20.2563L6.96531 20.2452C6.53323 19.8113 5.83527 19.8113 5.4032 20.2452L4.97112 20.679C4.55013 21.124 4.55013 21.8137 4.9822 22.2475Z" fill="white" fill-opacity="0.8"/>
</svg>
