<svg width="200" height="200" viewBox="0 0 200 200" fill="none" xmlns="http://www.w3.org/2000/svg">
<path d="M125.074 141.667H150C168.41 141.667 183.333 126.743 183.333 108.333C183.333 92.6986 172.569 79.5781 158.048 75.978C158.237 74.2891 158.333 72.5725 158.333 70.8333C158.333 45.5202 137.813 24.9999 112.5 24.9999C91.5047 24.9999 73.8066 39.1169 68.3798 58.3765C67.8124 58.3478 67.2413 58.3333 66.6667 58.3333C48.2573 58.3333 33.3334 73.2571 33.3334 91.6666C33.3334 92.1397 33.3433 92.6105 33.3628 93.0788C23.6375 96.5025 16.6667 105.77 16.6667 116.667C16.6667 130.474 27.8596 141.667 41.6667 141.667H65.4022L101.098 79.1988C105.338 71.7792 116.667 74.7877 116.667 83.3333V116.667H125C131.399 116.667 135.41 123.579 132.235 129.134L125.074 141.667Z" fill="white"/>
<path d="M75.0001 141.667L108.333 83.3333V125H125L91.6667 183.333V141.667H75.0001Z" fill="white"/>
</svg>
